<svg width="24" height="21" viewBox="0 0 24 21" fill="none" xmlns="http://www.w3.org/2000/svg">
<path d="M11.518 10.1897C11.8749 10.3681 12.3031 10.2252 12.4815 9.86841C12.6599 9.51159 12.5171 9.08333 12.1602 8.90492L7.87834 6.76396C7.52151 6.58555 7.09325 6.72842 6.91484 7.08525C6.73642 7.44207 6.87929 7.87033 7.23612 8.04874L11.518 10.1897Z" fill="#2D3134"/>
<path d="M16.7634 7.72746C16.585 8.08429 16.1568 8.22716 15.7999 8.04874L11.518 5.90779C11.1612 5.72938 11.0183 5.30112 11.1967 4.94429C11.3752 4.58747 11.8034 4.4446 12.1602 4.62301L16.4421 6.76396C16.799 6.94238 16.9418 7.37064 16.7634 7.72746Z" fill="#2D3134"/>
<path fill-rule="evenodd" clip-rule="evenodd" d="M23.6145 10.2611C23.6145 9.97644 23.5438 9.70743 23.4131 9.47256C23.2657 9.20703 23.042 8.98541 22.758 8.83383L22.0088 8.47701L22.758 8.12018C23.2933 7.83444 23.6145 7.2992 23.6145 6.69288C23.6145 6.0862 23.2933 5.55097 22.758 5.26558L14.9434 1.37604C13.9088 0.8408 12.624 0.8408 11.5895 1.37604L0.95613 6.69288C0.420892 6.97827 0.0996094 7.51351 0.0996094 8.12018C0.0996094 8.7265 0.420892 9.26174 0.95613 9.54748L1.70532 9.90431L0.95613 10.2611C0.420892 10.5465 0.0996094 11.0818 0.0996094 11.6884C0.0996094 12.2948 0.420892 12.83 0.95613 13.1157L1.70532 13.4726L0.95613 13.8294C0.420892 14.1148 0.0996094 14.65 0.0996094 15.2567C0.0996094 15.863 0.420892 16.3983 0.95613 16.684L8.7704 20.5732C9.80533 21.1084 11.0898 21.1084 12.1247 20.5732L22.7225 15.2567C23.0152 15.1002 23.2438 14.8695 23.3908 14.5932C23.5128 14.3643 23.5787 14.104 23.5787 13.8294C23.5787 13.2227 23.2577 12.6875 22.7225 12.4021L21.9729 12.0453L22.7225 11.6884C23.2933 11.4027 23.6145 10.8675 23.6145 10.2611ZM1.56245 8.2627C1.52343 8.23657 1.49869 8.20102 1.48823 8.16304C1.46976 8.09683 1.4945 8.02261 1.56245 7.97731L12.2317 2.66047C12.8739 2.33954 13.659 2.33954 14.3012 2.66047L22.0799 6.55001C22.1872 6.62144 22.1872 6.76396 22.0799 6.8354L11.4466 12.1522C10.8044 12.4732 10.0193 12.4732 9.37707 12.1522L1.56245 8.2627ZM22.1158 13.9719L11.4466 19.2887C10.8044 19.6097 10.0193 19.6097 9.37707 19.2887L1.56245 15.3992C1.50356 15.3598 1.47708 15.2992 1.48301 15.2407C1.48788 15.1926 1.51437 15.1459 1.56245 15.1138L3.2755 14.2573L8.73486 17.0049C9.76944 17.5402 11.0542 17.5402 12.0888 17.0049L20.4031 12.83L22.1158 13.6865C22.2228 13.758 22.2228 13.9005 22.1158 13.9719ZM22.1158 10.4037L11.4466 15.7205C11.2494 15.8191 11.0389 15.8874 10.8232 15.9254C10.4214 15.9961 10.0019 15.962 9.61751 15.8233C9.53562 15.7937 9.45513 15.7595 9.37707 15.7205L1.56245 11.831C1.51088 11.7965 1.48405 11.7452 1.48231 11.6937C1.48057 11.6383 1.50705 11.5825 1.56245 11.5456L3.2755 10.689L8.73486 13.4367C9.76944 13.9719 11.0542 13.9719 12.0888 13.4367L20.4031 9.26174L22.1158 10.1183C22.2228 10.1897 22.2228 10.3322 22.1158 10.4037Z" fill="#2D3134"/>
</svg>
