<svg width="22" height="18" viewBox="0 0 22 18" fill="none" xmlns="http://www.w3.org/2000/svg">
<path fill-rule="evenodd" clip-rule="evenodd" d="M2.91687 0H19.0832C20.3316 0 21.3472 1.01558 21.3472 2.26403V5.40748C21.3472 5.66527 21.1372 5.87526 20.8794 5.87526H20V15.736C20 16.9844 18.9844 18 17.736 18H4.26406C3.01561 18 2.00003 16.9844 2.00003 15.736V5.87526H1.12061C0.937056 5.87526 0.779391 5.76907 0.702924 5.61771C0.670657 5.55401 0.652832 5.48236 0.652832 5.40748V2.26403C0.652832 1.01558 1.66842 0 2.91687 0ZM17.736 16.1663C17.9731 16.1663 18.1663 15.973 18.1663 15.736V5.87526H3.8337V15.736C3.8337 15.973 4.02698 16.1663 4.26406 16.1663H17.736ZM14.6113 9C14.6113 9.25779 14.4013 9.46778 14.1435 9.46778H7.85657C7.59878 9.46778 7.3888 9.25779 7.3888 9V8.10187C7.3888 7.84408 7.59878 7.6341 7.85657 7.6341H14.1435C14.4013 7.6341 14.6113 7.84408 14.6113 8.10187V9ZM2.24327 2.26403C2.24327 2.0657 2.32944 1.88711 2.46627 1.76377C2.58577 1.65611 2.74386 1.59044 2.91687 1.59044H19.0832C19.4546 1.59044 19.7568 1.8927 19.7568 2.26403V4.28482H2.24327V2.26403Z" fill="#9A99B8"/>
</svg>
