<svg width="22" height="20" viewBox="0 0 22 20" fill="none" xmlns="http://www.w3.org/2000/svg">
<path fill-rule="evenodd" clip-rule="evenodd" d="M13.5178 17.1383C13.3097 16.618 12.8899 16.1997 12.3705 15.9794C12.0093 15.829 11.6404 15.8112 11.2561 15.8112C11.1684 15.8112 11.0807 15.8109 10.993 15.8106L10.9871 15.8106C10.8651 15.8102 10.743 15.8099 10.6209 15.8102C10.5637 15.8103 10.5064 15.8107 10.4492 15.8112C9.88307 15.8137 9.31948 16.0355 8.92497 16.4485C8.44848 16.9482 8.2666 17.6059 8.37163 18.2789C8.46387 18.8703 8.86605 19.4107 9.38351 19.709C9.93039 20.0215 10.5771 20.0078 11.1987 19.9946C11.3168 19.9921 11.4341 19.9897 11.5495 19.9894L11.5661 19.9894L11.5952 19.9888C12.2849 19.9699 12.886 19.635 13.2902 19.0844C13.3856 18.9549 13.4627 18.8127 13.5215 18.6628H15.9943C16.2914 18.6628 16.5911 18.6475 16.8755 18.5532C17.4698 18.3569 17.9975 17.949 18.2921 17.3933C18.4843 17.0262 18.5842 16.631 18.5867 16.2181V14.6489C18.6832 14.6505 18.78 14.6489 18.8756 14.6472C18.9432 14.6461 19.0101 14.6449 19.0761 14.6449H20.3936C20.4077 14.6454 20.422 14.6454 20.4364 14.6449C20.4613 14.6449 20.4859 14.6436 20.5105 14.641C21.2605 14.5828 21.8275 13.9803 21.8325 13.2225V8.36867L21.8327 8.29154L21.8331 8.22591C21.8336 8.13074 21.8342 8.03557 21.8325 7.9404C21.8171 7.16033 21.1998 6.5485 20.4159 6.5434C19.9961 6.54001 19.5753 6.54114 19.1548 6.54227H19.1533C19.0552 6.54254 18.9568 6.54281 18.8588 6.54301L18.5227 6.5434C18.519 6.5434 18.5153 6.54342 18.5116 6.54344C18.4871 6.34288 18.4549 6.14245 18.4125 5.942C17.9899 3.95358 16.7013 2.1946 14.9773 1.12391C13.2071 0.0251788 10.9912 -0.28583 8.9828 0.269906C7.01794 0.812899 5.30158 2.1691 4.33323 3.95613C3.89362 4.76513 3.61213 5.6367 3.48546 6.54304C3.07638 6.54009 2.66731 6.54118 2.25894 6.54227H2.25772C2.11284 6.54266 1.96743 6.54305 1.82278 6.54325L1.62221 6.5434C0.825525 6.5434 0.187651 7.13483 0.167154 7.9353C0.16545 8.01867 0.166009 8.10317 0.166594 8.1873V8.18815C0.166874 8.22979 0.167154 8.27133 0.167154 8.31259V13.2021C0.169722 13.8496 0.589835 14.4767 1.25589 14.6067C1.49371 14.654 1.7423 14.6495 1.98737 14.645C2.05906 14.6437 2.13044 14.6424 2.20116 14.6424H3.47612L3.49283 14.6437L3.50417 14.6444C3.51821 14.6451 3.53238 14.6454 3.54667 14.6452L3.56144 14.6449C4.34791 14.622 4.95247 14.0051 4.95761 13.2225V8.36867C4.95761 8.22591 4.96015 8.08316 4.95761 7.9404C4.95672 7.90194 4.95438 7.86396 4.95061 7.82638C4.95061 7.4597 4.9575 7.09752 5.00104 6.73347C5.0797 6.22534 5.21649 5.72897 5.40658 5.25103C5.53195 4.96684 5.67477 4.68954 5.83697 4.4252C5.9292 4.27734 6.02398 4.13203 6.12644 3.98927C6.13807 3.97387 6.14969 3.95782 6.16128 3.94178C6.16545 3.936 6.16965 3.93023 6.17382 3.92448C6.18987 3.90492 6.2138 3.87509 6.2273 3.85693C6.26397 3.81164 6.30095 3.76613 6.33907 3.7216C6.55683 3.46412 6.79249 3.2245 7.04611 3.00271C7.11017 2.94663 7.17421 2.89309 7.23824 2.83956C7.25688 2.8241 7.27555 2.80957 7.29419 2.79484C7.29854 2.79173 7.30375 2.78799 7.30998 2.78347C7.45087 2.67895 7.59432 2.57953 7.74034 2.48776C8.04236 2.29609 8.3598 2.12858 8.68654 1.98727C9.1658 1.79696 9.6635 1.66277 10.173 1.58482C10.7209 1.51928 11.2729 1.51922 11.8209 1.58465C12.3312 1.66294 12.8298 1.79906 13.3098 1.98814C13.5953 2.11287 13.874 2.25499 14.1396 2.41638C14.2881 2.50816 14.4342 2.60248 14.5776 2.70445C14.593 2.71592 14.609 2.72739 14.625 2.73886C14.6309 2.74312 14.6369 2.74737 14.6428 2.75163C14.6624 2.76754 14.6922 2.7912 14.7104 2.80465C14.756 2.8412 14.8018 2.87804 14.8466 2.91604C15.1053 3.13272 15.3461 3.36725 15.569 3.61963C15.6254 3.68336 15.6792 3.74709 15.733 3.81083C15.7485 3.8294 15.7631 3.84797 15.7779 3.86654C15.781 3.87087 15.7848 3.87602 15.7893 3.8822C15.8944 4.02241 15.9943 4.16517 16.0865 4.31048C16.2791 4.61099 16.4474 4.92687 16.5894 5.25202C16.7805 5.72843 16.9152 6.22317 16.9936 6.72959C17.0452 7.16399 17.0449 7.59852 17.0446 8.03488L17.0446 15.1627C17.0446 15.5221 17.0471 15.8816 17.0446 16.241C17.0446 16.2851 17.0428 16.3283 17.0397 16.3711C17.0249 16.4419 17.0058 16.5117 16.9819 16.5806C16.9504 16.6453 16.9155 16.709 16.8755 16.7687C16.87 16.7764 16.8645 16.784 16.859 16.7919C16.8338 16.8199 16.8099 16.8492 16.7833 16.8758C16.7556 16.9033 16.7237 16.9309 16.6933 16.9585C16.6926 16.959 16.6918 16.9594 16.6911 16.9599C16.6269 17.0037 16.5601 17.0409 16.4917 17.0744C16.4175 17.0997 16.3416 17.1205 16.2646 17.136C16.0133 17.1579 15.7553 17.1512 15.4998 17.1446C15.3776 17.1415 15.2561 17.1383 15.1361 17.1383H13.5178ZM14.659 2.7634C14.6635 2.7667 14.668 2.76999 14.6724 2.77328C14.6766 2.77663 14.6831 2.78082 14.6901 2.78537C14.7044 2.79467 14.721 2.80552 14.7262 2.81407C14.728 2.81697 14.7212 2.8126 14.7104 2.80465C14.6933 2.7909 14.676 2.77708 14.659 2.7634ZM14.659 2.7634C14.6537 2.75948 14.6482 2.75555 14.6428 2.75163C14.6232 2.73568 14.6138 2.7275 14.6365 2.74524C14.644 2.7513 14.6515 2.75734 14.659 2.7634ZM6.18567 3.90828C6.18898 3.9038 6.19231 3.89935 6.19561 3.89495C6.199 3.89075 6.20319 3.88434 6.20777 3.87736C6.2171 3.86314 6.22801 3.84655 6.23661 3.84142C6.23951 3.83968 6.23518 3.84631 6.2273 3.85693C6.21342 3.87407 6.19948 3.8913 6.18567 3.90828ZM6.18567 3.90828C6.18173 3.91363 6.17776 3.91904 6.17382 3.92448C6.15782 3.94397 6.14964 3.95328 6.16744 3.93064C6.17352 3.92321 6.17957 3.91577 6.18567 3.90828Z" fill="#2D3134"/>
</svg>
