<svg width="20" height="16" viewBox="0 0 20 16" fill="none" xmlns="http://www.w3.org/2000/svg">
<path d="M18.7981 2.58683H1.2013C0.533909 2.58683 0 2.01198 0 1.29341C0 0.574851 0.533909 0 1.2013 0H18.7981C19.4654 0 19.9994 0.574851 19.9994 1.29341C20.0216 2.01198 19.4654 2.58683 18.7981 2.58683Z" fill="#2D3134"/>
<path d="M9.7216 9.34134H1.2013C0.533909 9.34134 0 8.76649 0 8.04793C0 7.32937 0.533909 6.75452 1.2013 6.75452H9.7216C10.389 6.75452 10.9229 7.32937 10.9229 8.04793C10.9451 8.74254 10.4112 9.34134 9.7216 9.34134Z" fill="#2D3134"/>
<path d="M1.2013 16H14.1708C14.8382 16 15.3721 15.4252 15.3499 14.7066C15.3499 13.9881 14.816 13.4132 14.1486 13.4132H1.2013C0.533909 13.4132 0 13.9881 0 14.7066C0 15.4252 0.533909 16 1.2013 16Z" fill="#2D3134"/>
</svg>
