<svg width="20" height="20" viewBox="0 0 20 20" fill="none" xmlns="http://www.w3.org/2000/svg">
<path d="M7.21029 0H1.57019C0.703045 0 0 0.703045 0 1.57019V7.2106C0 8.07744 0.703045 8.78049 1.57019 8.78049H7.2106C8.07775 8.78049 8.78049 8.07744 8.78049 7.21029V1.57019C8.78049 0.703045 8.07775 0 7.21029 0Z" fill="white"/>
<path d="M7.21029 11.2188H1.57019C0.703045 11.2188 0 11.9218 0 12.7889V18.4293C0 19.2962 0.703045 19.9992 1.57019 19.9992H7.2106C8.07775 19.9992 8.78049 19.2962 8.78049 18.429V12.7889C8.78049 11.9218 8.07775 11.2188 7.21029 11.2188Z" fill="white"/>
<path opacity="0.5" d="M18.4298 0H12.7897C11.9226 0 11.2195 0.703045 11.2195 1.57019V7.2106C11.2195 8.07744 11.9226 8.78049 12.7897 8.78049H18.4301C19.2973 8.78049 20 8.07744 20 7.21029V1.57019C20 0.703045 19.2973 0 18.4298 0Z" fill="white"/>
<path d="M18.43 11.2188H12.7899C11.9228 11.2188 11.2197 11.9218 11.2197 12.7889V18.4293C11.2197 19.2962 11.9228 19.9992 12.7899 19.9992H18.4303C19.2975 19.9992 20.0002 19.2962 20.0002 18.429V12.7889C20.0002 11.9218 19.2975 11.2188 18.43 11.2188Z" fill="white"/>
</svg>
