<svg width="20" height="20" viewBox="0 0 20 20" fill="none" xmlns="http://www.w3.org/2000/svg">
<path fill-rule="evenodd" clip-rule="evenodd" d="M2 0C0.895431 0 0 0.895431 0 2V16C0 18.2091 1.79086 20 4 20H16C18.2091 20 20 18.2091 20 16V4C20 1.79086 18.2091 0 16 0H2ZM16 10.0067C16 10.4801 15.6162 10.8638 15.1429 10.8638H10.8555L10.8555 15.1429C10.8555 15.6162 10.4717 16 9.99833 16C9.52494 16 9.14119 15.6162 9.14119 15.1429L9.14119 10.8638H4.85714C4.38376 10.8638 4 10.4801 4 10.0067C4 9.53331 4.38376 9.14955 4.85714 9.14955H9.14119V4.85714C9.14119 4.38376 9.52495 4 9.99833 4C10.4717 4 10.8555 4.38376 10.8555 4.85714V9.14955H15.1429C15.6162 9.14955 16 9.53331 16 10.0067Z" fill="#2D3134"/>
</svg>
