<svg width="18" height="18" viewBox="0 0 18 18" fill="none" xmlns="http://www.w3.org/2000/svg">
<path fill-rule="evenodd" clip-rule="evenodd" d="M3.0723 4.59557C3.06234 4.58063 3.05238 4.56569 3.04242 4.55037C2.9731 4.44352 2.90915 4.33284 2.8517 4.21871C2.77166 4.06092 2.70425 3.89662 2.65025 3.72773C2.56408 3.45964 2.51276 3.18082 2.4959 2.89971C2.48939 2.79248 2.4871 2.68524 2.49131 2.57839C2.50242 2.30647 2.55413 2.0357 2.64374 1.77872C2.71153 1.58378 2.80114 1.3965 2.91182 1.22225C3.09374 0.936539 3.33234 0.688749 3.61153 0.496874C3.81413 0.357468 4.03627 0.248317 4.26912 0.169039C4.57781 0.0641019 4.90066 0.0146974 5.2262 0.00205893C5.28709 0.000144013 5.34761 -0.00023938 5.4085 0.000143603C5.62335 0.00512239 5.83667 0.0311656 6.0454 0.0821024C6.17523 0.11389 6.30277 0.154486 6.42724 0.203508C6.52184 0.240658 6.61451 0.282403 6.70528 0.328744C7.33759 0.651216 7.84772 1.17131 8.25866 1.74234C8.33756 1.85225 8.41338 1.96485 8.48615 2.07898C8.58726 2.23754 8.68263 2.39992 8.77302 2.5646C8.78489 2.58643 8.79676 2.60865 8.80863 2.63048C8.84578 2.56154 8.88369 2.4926 8.92276 2.42481C9.0028 2.28426 9.08667 2.146 9.17514 2.01081C9.24906 1.89706 9.32604 1.78561 9.40685 1.67646C9.85954 1.06292 10.4348 0.512576 11.1494 0.219593C11.2727 0.169422 11.3991 0.126911 11.5282 0.0932087C11.7358 0.038825 11.9476 0.0097183 12.162 0.00129265C12.2084 0.000143703 12.2547 -0.00023938 12.3011 0.000143603C12.6297 0.00550538 12.9567 0.0468682 13.2712 0.144146C13.5201 0.221126 13.7583 0.331425 13.9751 0.47581C14.2489 0.658493 14.4856 0.894411 14.6694 1.16748C14.797 1.35706 14.8988 1.5631 14.9735 1.77872C15.0574 2.02 15.1083 2.27277 15.1233 2.52784C15.1305 2.65154 15.129 2.77563 15.1214 2.89971C15.106 3.15784 15.0612 3.41483 14.9873 3.663C14.9364 3.83343 14.8716 4.00003 14.7943 4.1605C14.7387 4.27616 14.6763 4.38876 14.6085 4.49752C14.5879 4.53046 14.5664 4.5634 14.545 4.59557H16.6598C16.9137 4.59557 17.1573 4.69629 17.3369 4.87591C17.5165 5.05553 17.6173 5.29911 17.6173 5.55303C17.6173 6.52657 17.6173 8.02634 17.6173 8.99988C17.6173 9.2538 17.5165 9.49738 17.3369 9.677C17.1573 9.85662 16.9137 9.95734 16.6598 9.95734H16.0853V17.0425C16.0853 17.2965 15.9792 17.54 15.79 17.7197C15.6012 17.8993 15.3446 18 15.0773 18C12.2991 18 5.31811 18 2.53994 18C2.27262 18 2.01603 17.8993 1.82721 17.7197C1.63802 17.54 1.53194 17.2965 1.53194 17.0425V9.95734H0.95746C0.703541 9.95734 0.459962 9.85662 0.280342 9.677C0.100723 9.49738 0 9.2538 0 8.99988C0 8.02634 0 6.52657 0 5.55303C0 5.29911 0.100723 5.05553 0.280342 4.87591C0.459962 4.69629 0.703541 4.59557 0.95746 4.59557H3.0723ZM3.44685 9.95734V16.0851H7.85117V9.95734H3.44685ZM9.76609 9.95734V16.0851H14.1704V9.95734H9.76609ZM7.85385 8.04242V6.51049H1.91492V8.04242H7.85385ZM15.7023 6.51049H9.76341V8.04242H15.7023V6.51049ZM7.60797 4.59557C7.54554 4.43739 7.47967 4.28037 7.40997 4.12526C7.21273 3.68483 6.98639 3.25321 6.70413 2.86065C6.5789 2.68678 6.44217 2.52018 6.28821 2.37081C6.17026 2.25668 6.04195 2.15175 5.89948 2.06941C5.78076 2.00123 5.6517 1.94915 5.51612 1.92694C5.44106 1.91506 5.36598 1.91315 5.29054 1.91583C5.22773 1.91813 5.16531 1.92311 5.10326 1.93191C4.91867 1.95796 4.7287 2.01962 4.59848 2.15902C4.56401 2.19541 4.53491 2.23639 4.51002 2.27966C4.48091 2.3306 4.45831 2.38537 4.44146 2.44167C4.41427 2.53128 4.40278 2.62358 4.4047 2.71741C4.40661 2.83231 4.42117 2.94759 4.44951 3.05904C4.46368 3.11533 4.48168 3.17048 4.50236 3.22448C4.64675 3.59521 4.93781 3.89011 5.25454 4.12067C5.48701 4.28956 5.73978 4.42973 6.00136 4.54808C6.03736 4.56416 6.07336 4.58025 6.10974 4.59557H7.60797ZM11.5064 4.59557C11.6822 4.52127 11.8541 4.43701 12.0196 4.34203C12.2057 4.23518 12.3846 4.11416 12.5481 3.97475C12.825 3.73883 13.062 3.44279 13.1601 3.08738C13.1903 2.97784 13.2072 2.86486 13.2118 2.75112C13.2129 2.71435 13.2137 2.67758 13.2114 2.64082C13.2072 2.56728 13.193 2.49452 13.1704 2.42443C13.1509 2.36354 13.1241 2.30456 13.0896 2.25056C13.0643 2.21073 13.0349 2.17396 13.0015 2.14102C12.8526 1.99511 12.6373 1.94111 12.4359 1.92272C12.3451 1.9143 12.2524 1.91047 12.1617 1.91928C12.0797 1.92732 11.9989 1.94608 11.9211 1.97404C11.8013 2.01732 11.6894 2.08089 11.586 2.15443C11.4401 2.2586 11.3095 2.38269 11.1896 2.51558C11.1418 2.56882 11.0954 2.62358 11.0506 2.6795C10.9909 2.7538 10.9342 2.83039 10.8794 2.90814C10.5757 3.3413 10.336 3.81849 10.1288 4.3045C10.0878 4.40101 10.048 4.49791 10.0093 4.59557H11.5064Z" fill="#FC5A8B"/>
</svg>
