<svg width="18" height="18" viewBox="0 0 18 18" fill="none" xmlns="http://www.w3.org/2000/svg">
<path d="M9.37587 1.39348L13.6391 5.65742L14.1629 5.13365C15.3601 3.93672 15.2849 1.99176 14.1629 0.869706C12.9663 -0.326858 11.021 -0.252347 9.89891 0.869706L9.37587 1.39348Z" fill="#FE8862"/>
<path d="M17.2302 16.5039H0.773468C0.39945 16.5039 0.0254326 16.8031 0.0254326 17.252C0.0254326 17.5347 0.143774 17.7578 0.343931 17.8846C0.39945 17.9196 0.460812 17.9474 0.528019 17.9668C0.60326 17.9887 0.685806 18 0.773468 18H17.2302C17.6788 18 17.9783 17.7009 17.9783 17.252C17.9783 17.0273 17.903 16.84 17.7723 16.7092C17.6415 16.5784 17.4545 16.5039 17.2302 16.5039Z" fill="#FE8862"/>
<path d="M8.32687 2.48813L12.5587 6.71957L6.68762 12.5906L2.45582 8.35919L8.32687 2.48813Z" fill="#FE8862"/>
<path d="M0.249697 14.8581C0.39945 15.0079 0.698225 15.0827 0.997732 15.0079L5.48594 13.5118L1.67126 9.69674L0.0999432 14.1101C0.0239716 14.2237 0.00570869 14.3566 0.0349293 14.4892C0.0641499 14.6185 0.13866 14.7474 0.249697 14.8581Z" fill="#FE8862"/>
</svg>
