<svg width="20" height="18" viewBox="0 0 20 18" fill="none" xmlns="http://www.w3.org/2000/svg">
<path fill-rule="evenodd" clip-rule="evenodd" d="M2.87476 0H4.62476C5.17704 0 5.62476 0.447715 5.62476 1V13.375C5.62476 13.9273 5.17704 14.375 4.62476 14.375H2.87476C2.32247 14.375 1.87476 13.9273 1.87476 13.375V1C1.87476 0.447716 2.32247 0 2.87476 0ZM0 16.2507H20V17.5007H0V16.2507ZM10.8745 2.50024H9.12451C8.57223 2.50024 8.12451 2.94796 8.12451 3.50024V13.3752C8.12451 13.9275 8.57223 14.3752 9.12451 14.3752H10.8745C11.4268 14.3752 11.8745 13.9275 11.8745 13.3752V3.50024C11.8745 2.94796 11.4268 2.50024 10.8745 2.50024ZM15.3743 5.00049H17.1243C17.6766 5.00049 18.1243 5.4482 18.1243 6.00049V13.3755C18.1243 13.9278 17.6766 14.3755 17.1243 14.3755H15.3743C14.822 14.3755 14.3743 13.9278 14.3743 13.3755V6.00049C14.3743 5.4482 14.822 5.00049 15.3743 5.00049Z" fill="#2D3134"/>
</svg>
