<svg width="20" height="20" viewBox="0 0 20 20" fill="none" xmlns="http://www.w3.org/2000/svg">
<path d="M10 0V1.93548C12.1388 1.93548 14.1901 2.78514 15.7025 4.29753C17.2149 5.80992 18.0645 7.86116 18.0645 10C18.0645 12.1388 17.2149 14.1901 15.7025 15.7025C14.1901 17.2149 12.1388 18.0645 10 18.0645V20C12.6522 20 15.1957 18.9464 17.0711 17.0711C18.9464 15.1957 20 12.6522 20 10C20 7.34784 18.9464 4.8043 17.0711 2.92893C15.1957 1.05357 12.6522 0 10 0Z" fill="#00C667"/>
<path d="M6.32084 1.77307C6.58807 2.23593 6.42948 2.82779 5.96662 3.09503C5.50375 3.36226 4.91189 3.20367 4.64466 2.74081C4.37742 2.27795 4.53601 1.68609 4.99888 1.41885C5.46174 1.15162 6.0536 1.31021 6.32084 1.77307Z" fill="#00C667"/>
<path d="M3.09503 5.96887C3.36226 5.506 3.20367 4.91414 2.74081 4.64691C2.27795 4.37967 1.68609 4.53826 1.41885 5.00112C1.15162 5.46399 1.31021 6.05585 1.77307 6.32308C2.23593 6.59032 2.82779 6.43173 3.09503 5.96887Z" fill="#00C667"/>
<path d="M0.967742 10.9677C1.50221 10.9677 1.93548 10.5345 1.93548 10C1.93548 9.46553 1.50221 9.03226 0.967742 9.03226C0.433273 9.03226 0 9.46553 0 10C0 10.5345 0.433273 10.9677 0.967742 10.9677Z" fill="#00C667"/>
<path d="M6.32052 18.2268C6.58775 17.7639 6.42917 17.172 5.9663 16.9048C5.50344 16.6376 4.91158 16.7962 4.64434 17.259C4.37711 17.7219 4.5357 18.3138 4.99856 18.581C5.46142 18.8482 6.05329 18.6896 6.32052 18.2268Z" fill="#00C667"/>
<path d="M3.09503 14.0308C3.36226 14.4937 3.20367 15.0855 2.74081 15.3528C2.27795 15.62 1.68609 15.4614 1.41885 14.9986C1.15162 14.5357 1.31021 13.9438 1.77307 13.6766C2.23593 13.4094 2.82779 13.568 3.09503 14.0308Z" fill="#00C667"/>
<path d="M8.70964 11.2129L13.1871 6.73545L14.5548 8.10319L9.39351 13.2645C9.21206 13.4457 8.96609 13.5475 8.70964 13.5475C8.45319 13.5475 8.20722 13.4457 8.02577 13.2645L5.12254 10.3613L6.49028 8.99351L8.70964 11.2129Z" fill="#00C667"/>
</svg>
