<svg width="20" height="20" viewBox="0 0 20 20" fill="none" xmlns="http://www.w3.org/2000/svg">
<path d="M10.6021 9.39899H14.5093C15.0065 9.39899 15.411 9.80354 15.411 10.3007C15.411 10.5417 15.3172 10.768 15.1468 10.9378C14.9764 11.1082 14.7501 11.202 14.5093 11.202H9.70049C9.20337 11.202 8.79883 10.7975 8.79883 10.3004V5.4915C8.79883 4.99439 9.20337 4.58984 9.70049 4.58984C9.94153 4.58984 10.1678 4.68392 10.3383 4.85403C10.5084 5.02444 10.6021 5.25106 10.6021 5.4918V9.39899Z" fill="#2C98F0"/>
<path fill-rule="evenodd" clip-rule="evenodd" d="M6.10694 0.786547C7.34101 0.264486 8.65082 0 10 0C11.3492 0 12.6593 0.264486 13.8931 0.786547C15.0842 1.29027 16.1532 2.0113 17.0711 2.92889C17.989 3.84648 18.7097 4.91584 19.2135 6.10694C19.7355 7.34101 20 8.65082 20 10C20 11.3492 19.7355 12.659 19.2135 13.8931C18.7097 15.0842 17.9887 16.1532 17.0711 17.0711C16.1535 17.989 15.0842 18.7097 13.8931 19.2135C12.6593 19.7352 11.3492 20 10 20C8.65082 20 7.34101 19.7352 6.10694 19.2135C4.91615 18.7097 3.84678 17.9887 2.92889 17.0711C2.011 16.1535 1.29027 15.0842 0.786547 13.8931C0.264787 12.659 0 11.3495 0 10C0 8.65052 0.264787 7.34071 0.786547 6.10694C1.29027 4.91584 2.0113 3.84648 2.92889 2.92889C3.84648 2.0113 4.91615 1.29027 6.10694 0.786547ZM18.1967 10C18.1967 5.47337 14.5269 1.80332 10 1.80332C5.47307 1.80332 1.80332 5.47367 1.80332 10.0003C1.80332 14.5269 5.47307 18.197 10 18.197C14.5269 18.197 18.197 14.5269 18.1967 10Z" fill="#2C98F0"/>
</svg>
